<svg preserveAspectRatio="xMidYMid meet" data-name="Layer 1" xmlns="http://www.w3.org/2000/svg" viewBox="0 0 841.89 1190.55"><defs><style>.cls-1{fill:#1d1d1b;}</style></defs><path class="cls-1" d="M249,533.43q-4.57,21.57-7.26,43.47a437,437,0,0,0-3.17,44.57c-.17,7.62-.1,15.22.36,22.83.31,5.2-.33,13.54,3.62,17.52a.58.58,0,0,0,.8,0c3.45-4.14,2.47-11.5,2.69-16.57.32-7.29.59-14.59.94-21.88.69-14.59,2.06-29.14,3.83-43.63,1.8-14.69,4.31-29.3,7.44-43.76q2.22-10.23,4.85-20.36c1.89-7.23,5-14.67,6-22.05.62-4.61-5.8-8.62-8.34-3.51-3.22,6.47-4.65,14.16-6.46,21.14Q251.36,522.26,249,533.43Z"/><path class="cls-1" d="M471,562.54c.22,6.41,3.22,13,4.74,19.27q2.48,10.1,4.17,20.35c.64,3.86,6.89,33-1.15,32.11-3.74-.4-7.35-10-9.84-16.6-2.4-6.36-4.7-12.74-6.63-19.26-3.83-13-6.62-21.37-9.88-34.48-.51-2-5.64.55-5.5,2.47,1.21,16.18,5.59,27.19,9.81,43.14,2.09,7.93,4.42,16.17,8,23.59,3,6.25,8.74,11.82,16.19,11,15.16-1.75,11.65-22.3,10.19-32.36a262.07,262.07,0,0,0-5.12-25.89q-1.59-6.4-3.51-12.73c-1.26-4.14-2.2-8.83-4.69-12.4C475.79,557.94,470.83,558.69,471,562.54Z"/><path class="cls-1" d="M494.3,588a18,18,0,0,0,1.22,5.39A283.82,283.82,0,0,0,505,626.16c1.69,4.63,8.69,2.86,7.48-2.06a10.75,10.75,0,0,0-.53-1.63c-4.05-12.47-8.17-24.85-11.64-37.51-.24-.84-.44-1.7-.67-2.55a35.33,35.33,0,0,1,.37-7.14,11.53,11.53,0,0,1,1.3-3.89c1-1.61,2.91-2,3-4.1-.1,2.4,2.22,3.54,4.25,3.24l.78-.12a3.84,3.84,0,0,0,2.76-2.76c.9-4-1.68-7-5.79-7.15s-8.15,2.67-10.24,6.21a4.36,4.36,0,0,0-.23.42c-.12-.52-.29-1-.37-1.55-1.11-6.94-1.68-7.19-3.16-8.51-.56-.49-2.3-.48-2.66.22-2.48,4.91,2.67,21.65,4.14,28.5Z"/><path class="cls-1" d="M553.32,514.28q5.83,24.74,11.78,49.45c3.88,16.16,7.81,32.29,12.14,48.33l1,3.55c.77,4.72,1.51,9.45,2.56,14.11,1.41,6.3,3,12.57,4.69,18.79s3.31,13.57,7.07,19c1.85,2.7,6.3,1.82,6.33-1.71.06-6.39-2.35-12.81-4.06-18.9q-1.35-4.82-2.75-9.61c.4-3.75-1.39-7.67-2.35-11.25-1.42-5.32-2.79-10.65-4.3-15.94-1.61-5.65-2.93-11.74-4.74-17.59q-3.2-15.13-6.59-30.25-5.44-24.33-11-48.64-2.66-11.67-5.32-23.34c-1.72-7.53-2.52-17.44-6.9-23.9-1.58-2.33-6.37-2.59-6.86.9-1.06,7.67,2.09,16.21,3.84,23.67Z"/><path class="cls-1" d="M677.51,561.56c-.46-3.25-5.88-3.13-6.45,0-2.86,15.47-3.26,31.22-5.58,46.79a390.72,390.72,0,0,1-9.82,46.39c-2,7.31-4.09,14.64-6.51,21.83-.86,2.56-1.76,6-4.25,7.5-2.77,1.65-6.57.46-9-1.23a17.5,17.5,0,0,1-4.18-4.23c8.32-9.77,11-22.65,13.18-35,5.55-32.07,10.66-65.44,3-97.63a112.52,112.52,0,0,0-16-37.37,89.81,89.81,0,0,0-12.79-15.07c-5-4.68-11.09-10-18.05-11.24-6.62-1.2-13,1.78-17.09,6.92-4.8,6-5.75,13.65-5.6,21.09a391.67,391.67,0,0,0,4.41,48.23,434.16,434.16,0,0,0,24.75,94.23q4.28,11,9.1,21.78l.14.29c-6,3.22-13.2,3.26-19.85,3.47-16.43.51-32.86.94-49.29,1.41l-49.28,1.4c-5.95.17-11.91.28-17.87.44C459,642.79,439.49,602.8,427.59,560.14c2.54-1.3,5.06-2.61,7.56-3.85a361.09,361.09,0,0,1,42.51-17.93c3-1.05,4.22-3.59,3.78-6.66a4.62,4.62,0,0,0-.55-1.3,5.43,5.43,0,0,0-6.11-2.48,262.27,262.27,0,0,0-41.64,17.81c-2.73,1.46-5.47,2.88-8.22,4.3q-1.32-5.32-2.48-10.7c-6.69-31.34-9.18-64.75-3.45-96.45,2.46-13.6,6.78-30.68,17.36-40.41,12.85-11.81,23.88,12,26.18,21.82,3.76,16.11,1.67,33.8-2,49.72-4,17.19-11.29,32.74-19.89,48-1.22,2.16,1.93,4.88,3.58,2.77,19.32-24.83,30.64-60.07,29-91.55-.78-14.54-5.41-30.81-17.65-39.88-5.8-4.29-13.12-5.83-19.87-2.84s-11.55,9.59-15.19,16c-8.18,14.32-11.63,30.69-13.43,46.92a256.29,256.29,0,0,0,.07,55,330.42,330.42,0,0,0,8.37,46.48q-8.2,4.14-16.4,8.32a434.8,434.8,0,0,0-2.29-58.51c-.51-4.76-8.3-6.92-9.2-1.25-3.1,19.52-7.12,38.92-10.21,58.46-1.47,9.29-2.62,18.7-4.44,27.93-.6,3.07-1.37,6.71-3.05,9.53-4.3-28.81-3.38-57.74-.94-86.77.22-2.59-3.72-3-4.42-.6-9.3,31.28-9.18,64.82-4.45,96.89a37.92,37.92,0,0,1-4.29,3.57,54.9,54.9,0,0,1-11.66,5.47c-4.9,1.78-9.85,3.39-14.83,5-1.72.54-12.14,4.41-14.84,3.82v-1.27c1.1-1.4,1.4-3.47,1.87-5.15a108.49,108.49,0,0,1,4.19-11.69c3-7.3,6.36-14.44,9.93-21.47a284.22,284.22,0,0,1,25.08-40.51c3.84-5.18-4.9-10.28-8.68-5.07A245.23,245.23,0,0,0,319.66,589c-1.6,3.76-3.28,7.64-4.77,11.59.53-14.78,1.38-29.57,2.64-44.3,1.55-18.19,3.65-36.36,6.44-54.4,1.37-8.94,2.72-17.89,4.15-26.82,1.31-8.09,3.13-17,1.94-25.16-.17-1.16-1.76-1.1-2.29-.3-5,7.45-6.84,17.35-8.73,26-1.93,8.82-3.58,17.66-5,26.59-2.75,18-4.87,36-6.24,54.13q-1.69,22.56-1.85,45.15a3.78,3.78,0,0,0-6-1.15c-5.18,4.64-8.42,12.1-11.29,18.65,2.79-21.51,9.62-42.71,7.64-64.55a4.56,4.56,0,0,0-4.44-4.44c-6.7-.29-11.28,4.27-15,9.3-2,2.69-3.95,5.44-5.81,8.26a286.33,286.33,0,0,1,9.65-28.71c2.4-6.08-7.49-8.8-9.83-2.71a238.1,238.1,0,0,0-11.72,41.19c-3,8.69-4.23,18.55-5.58,27.46-1.49,9.82-2.17,19.59,1.26,29.08a2.86,2.86,0,0,0,1.36,1.63,9.78,9.78,0,0,0,1.58,3.28.51.51,0,0,0,.87,0c1.89-2.75,1.82-6.22,2.2-9.47.5-4.29.84-8.59,1.21-12.9a244.75,244.75,0,0,1,3.34-24.56c.85-1.91,1.75-3.8,2.74-5.67a124.84,124.84,0,0,1,10.08-15.75c2.32-3.14,5.27-8.32,9.15-10.53-1.08,28.9-12.45,57.08-8.73,86.12.66,5.09,7.7,6.8,9.4,1.27a188.92,188.92,0,0,1,8.45-22.68c2.93-6.47,7.55-13,9.44-19.87,0,2.23,0,4.45,0,6.68,0,4.22.08,8.46.17,12.71a4,4,0,0,0-1.36,2.12,8.72,8.72,0,0,0,1.66,8.07,194.26,194.26,0,0,0,3.6,31.71c.45,2.12,3.41,1.44,3.56-.48.75-9.21.85-18.46.83-27.72a13.67,13.67,0,0,0,3-.2c8.2-1.46,16.4-5.11,24.09-8.23,6.34-2.57,12.82-5.14,18.22-9.44a23.92,23.92,0,0,0,5-5.3,7.11,7.11,0,0,0,2.56,0c17.44-3.17,17.71-28.55,19.81-41.86q1.46-9.27,2.73-18.57a425.58,425.58,0,0,1-32.88,158.9,403.9,403.9,0,0,1-23.7,47.41q-6.63,11.37-13.94,22.35c-4.22,6.33-9.7,13.08-17.63,7.74-12.58-8.47-16.51-28.93-16.54-43a77.38,77.38,0,0,1,1.65-15.92A19.78,19.78,0,0,0,297.33,736c8.48,1.06,16.37-2,22.7-7.58,7.25-6.42,12.3-15.92,16.22-24.65,3.78-8.43,2.94-17.51-5.36-22.78-17.66-11.2-35.47,8.86-43.64,22.67A82.72,82.72,0,0,0,282,714.17c-4.72-3.83-9.26-8-13.66-12.13a265.06,265.06,0,0,1-27-29.59,253.94,253.94,0,0,1-21.14-31.93c-3.8-7.67-7.46-15.38-10.89-23.17A142.44,142.44,0,0,1,233,614.42c6.64-.27,6.62-10.73,0-10.31a156.27,156.27,0,0,0-27.47,4.12,315.09,315.09,0,0,1-14.9-44.61c-7.1-28.65-10.13-58.77-7.74-88.24,2-24.94,9.43-53.35,30.21-69.41,6.94-5.36,22.66-11.42,26.91.19,2.38,6.48,1.51,14.56,1.47,21.31q-.08,12.06-.92,24.09c-2.17,30.87-9.21,60.33-19.17,89.28a165.68,165.68,0,0,1-5.92-24.06,171.59,171.59,0,0,1-2-20.36c-.31-6.95-.9-14-.46-20.91.3-4.6-6.43-4.33-7,0-1,7.37-2.21,14.34-2.22,21.82a173.84,173.84,0,0,0,1.44,21.75,186.75,186.75,0,0,0,10.09,42c1.71,4.63,9.37,7.15,11.89,1.55,14.69-32.76,22.81-68.95,26-104.62.8-8.93,1.26-17.88,1.28-26.85,0-8.39.36-17.27-1.47-25.52-3.21-14.54-16.58-20.7-30.39-17.63-28.21,6.26-43.11,39.28-48.2,64.78-6.24,31.33-3.88,64.6,2.34,95.73a280.43,280.43,0,0,0,19.18,60.67c.05.55.13,1.1.21,1.64-10.07,3.13-21.23,7.24-29.18,14.08-2.69,2.31.17,6.86,3.41,5.86,9.64-3,18.62-7.7,28.31-10.69.86,2.34,1.82,4.63,2.76,6.85a198.24,198.24,0,0,0,9.35,19,245.49,245.49,0,0,0,24.07,35.52,226.57,226.57,0,0,0,30.25,30.75,164,164,0,0,0,13.77,11,89,89,0,0,0-3.14,33.21c1.58,16.37,8.08,40,25.61,46.08,9.38,3.23,17.81-1.46,23.55-8.78,6.38-8.15,11.63-17.4,16.78-26.36a436.15,436.15,0,0,0,46.71-119.53,432.56,432.56,0,0,0,10.41-76.45,78.69,78.69,0,0,0,19.38-6.54,429.34,429.34,0,0,0,17,48.57A732.71,732.71,0,0,0,468.62,682c-5,.23-9.92.54-14.86,1-14.42,1.41-28.8,4.34-41.67,11.25-5.64,3-12.44,7-14.13,13.68-1.42,5.61,1.39,10.78,5.82,14.08,5,3.73,11.05,5,17.11,5.8,9.07,1.17,18.19,1.81,27.33,2.07,17.83.49,36.16.19,53.48-4.39,2.61-.69,2.19-4.49-.29-4.87a5,5,0,0,0-.69-3.4q-7.17-12.39-14.26-24.9l2,0,104.48-1.6c10.21-.16,21-.38,29.84-5a29.24,29.24,0,0,0,5.53,5.81c5,3.88,11.61,5.8,17.83,4.34,6.87-1.61,10.81-7.14,13.19-13.4,5.81-15.35,9.46-31.78,12.54-47.87a408.27,408.27,0,0,0,6.38-49.39A111.31,111.31,0,0,0,677.51,561.56ZM298.44,704.21c4.65-6.78,12.31-16.5,21.34-16.71,3.62-.08,8.28,1.91,9.05,5.82.85,4.25-3.24,9.77-5.19,13.3-4.07,7.38-9.41,16.22-18,18.89a17.16,17.16,0,0,1-4.9.75c-3.46-2.27-7.06-4.18-10.57-6.29A75.07,75.07,0,0,1,298.44,704.21Zm192,16.45c-13.74.22-27.46.9-41.23.15-8.82-.48-17.61-1.37-26.36-2.5-4-.51-13.69-1.52-15.16-6.32-1.52-5,10.34-9.7,13.8-11.22a90,90,0,0,1,21.37-6c10.4-1.73,21-2.14,31.57-2.31Q482.3,706.65,490.43,720.66Zm136-56.85c-.35.72-.73,1.43-1.13,2.13q-4.64-10.56-8.66-21.38a428.93,428.93,0,0,1-22.45-87.27,376.13,376.13,0,0,1-4.1-46.07c-.12-5.35-.29-15.23,6.42-17.13,5.76-1.63,13.26,6.89,16.82,10.56,18.36,18.93,25.51,46,26.1,71.72.37,16.29-1.53,32.52-4.13,48.57C633.29,637.63,632.17,652.09,626.47,663.81Z"/><path class="cls-1" d="M594.17,671.74a.1.1,0,0,0,0-.2A.1.1,0,0,0,594.17,671.74Z"/><path class="cls-1" d="M626.73,477.06c2.71,4.31,5.39,8.64,8.09,13,2.55,4.07,4.94,8.49,9.16,11a1.62,1.62,0,0,0,2.4-1.38c.19-4.67-2-8.83-4-12.95-2.33-4.88-4.85-9.7-7.38-14.48-5.06-9.57-10.46-18.94-15.73-28.4-3.75-6.74-14.6-.24-10.25,6C615.18,458.72,621,467.9,626.73,477.06Z"/><path class="cls-1" d="M644.26,463.34c2.1,4.48,4.29,8.93,6.32,13.44,1.95,4.34,3.64,9,7,12.53,1.37,1.45,3.4.21,3.59-1.48.51-4.55-1-9.21-2.22-13.55-1.44-5.09-2.92-10.15-4.66-15.16-1.62-4.7-3.41-9.34-5.24-14s-3.2-10.18-6.86-13.59c-3.47-3.23-10.41-1.18-10,4.16.34,4.94,3.09,8.94,5.28,13.31C639.77,453.76,642,458.55,644.26,463.34Z"/><path class="cls-1" d="M222.37,704.36a219.93,219.93,0,0,0-16.26-20.75c-5.12-5.93-10.61-12.1-17.78-15.58-5.09-2.48-14.75-5.06-19,.41-4.5,5.84-2.59,15,2,20.09.9,1,2.29-.27,1.76-1.36-1.78-3.71-2.85-7.91-2.08-12,1.1-5.85,5.95-5.82,10.61-4.28,6.17,2,11.19,7,15.42,11.77a188.15,188.15,0,0,1,25.35,35.41,82,82,0,0,1,8.17,20.25c1.56,6.74.07,18.71-9.87,15.24-6.29-2.19-10.88-8.73-12.88-14.83-1.53-4.69-3.23-15.09,2.36-18,1.67-.88,1-3.14-.48-3.71-6.35-2.36-9.32,4.77-9.95,9.84a33.92,33.92,0,0,0,4.47,21.27c3.66,6.18,9.69,12,17,13.37s13.73-3.14,16.3-9.87c3-7.88.17-16.64-2.78-24.09A121.67,121.67,0,0,0,222.37,704.36Z"/><path class="cls-1" d="M503.87,479.82c.67,3.6,1.41,7.19,2.15,10.77.17.79.32,1.61.47,2.46.42,3,.86,5.91,1.21,8.81,1,8.18,2.32,16.32,3.62,24.46q4.23,26.49,8.61,53,.87,5.33,1.76,10.64a8,8,0,0,0,.4,2.39q3.28,19.92,6.63,39.85c.79,4.75,2.72,15.1,10.27,11.06a5.42,5.42,0,0,0,1.57-8,11.38,11.38,0,0,0-.44-2.12c-.28-1.63-.58-3.26-.86-4.88l-1.92-10.74c-1.23-6.83-2.43-13.66-3.71-20.48-.08-.43-.17-.87-.25-1.3A7,7,0,0,0,534,595a63,63,0,0,0,28.4,33.49c2.77,1.57,7.59.34,8.12-3.31a98.65,98.65,0,0,0,1-17.93c-.22-5.4-.2-11.36-4-15.53-1.56-1.71-5.12-1.48-6.13.79-2.14,4.78-.95,9.66-.81,14.74.06,2.32,0,4.62-.11,6.93a64,64,0,0,1-10-9.2,55.09,55.09,0,0,1-6.92-10c-1.71-3.13-2.67-6.8-4.59-9.77a12.34,12.34,0,0,0-2.83-3.21l.12-.27c2.56-5.38,4.9-10.86,7.27-16.33,3.24-7.46,9.64-19.18,4.88-27.11a.35.35,0,0,0-.59,0c-2.51,3.67-3.52,8.16-5.31,12.2a136.23,136.23,0,0,1-6.8,12.51c-2.17,3.78-4.37,7.54-6.47,11.36q-1.87-9.57-3.76-19.15c-1.22-6.21-2.5-12.4-3.79-18.6-.19-1.46-.38-2.89-.54-4.27-.69-6.28-1.62-12.56-2.63-18.8q-.43-2.75-.93-5.49a114.35,114.35,0,0,0-1.62-15c-.65-4.41-1.46-8.8-2.31-13.18a30.57,30.57,0,0,0-.78-3.45c-.58-4.22-5.59-7.24-8.22-4a3.06,3.06,0,0,0-1.28,3.14A15.1,15.1,0,0,0,503.87,479.82Z"/><path class="cls-1" d="M263,460.18s0,0,0,.05c1.91,8.14,11.41,12.41,19.13,10.93,7.89-1.5,14.53-8.89,11.05-17.07-3.21-7.54-13.2-13.23-21.4-11.69a7.26,7.26,0,0,0-3.88.87,7,7,0,0,0-2.22,2,12.55,12.55,0,0,0-2,1.23c-2.42,1.87-2.67,4.51-2.19,7.24A10.47,10.47,0,0,0,263,460.18Zm20.52,1.29c-4.26.38-8.82.77-12.08-2.42a5.75,5.75,0,0,1-1.17-1.64,3,3,0,0,0,.21-.79c.05-.44-.06-1.67-.11-3a3.83,3.83,0,0,1,.23-.75,3.28,3.28,0,0,1,.59-.51,5.23,5.23,0,0,1,2.19-.74c3,.8,6,1.37,8.66,3.34C285,457.17,285.61,459.66,283.49,461.47Z"/></svg>